<svg width="38" height="35" viewBox="0 0 38 35" fill="none" xmlns="http://www.w3.org/2000/svg">
<path fill-rule="evenodd" clip-rule="evenodd" d="M21.7318 10.1945C20.8699 7.45459 17.0655 7.45459 16.2036 10.1945C16.1319 10.4226 15.9426 10.5403 15.7689 10.5403C12.8786 10.5403 11.8622 14.2402 14.0476 15.8803C14.2128 16.0043 14.3003 16.2457 14.2267 16.4797C13.8061 17.8168 14.3473 19.0728 15.2694 19.7648C16.1972 20.4611 17.5694 20.6224 18.7121 19.7648C18.8673 19.6483 19.0681 19.6483 19.2233 19.7648C20.366 20.6224 21.7382 20.4611 22.666 19.7648C23.5881 19.0728 24.1293 17.8168 23.7087 16.4797C23.6351 16.2457 23.7226 16.0043 23.8879 15.8803C26.0732 14.2402 25.0568 10.5403 22.1665 10.5403C21.9928 10.5403 21.8035 10.4226 21.7318 10.1945ZM18.533 10.9272C18.678 10.4662 19.2574 10.4662 19.4024 10.9272C19.781 12.1306 20.8831 12.9822 22.1665 12.9822C22.2916 12.9822 22.3717 13.0193 22.4314 13.067C22.4995 13.1214 22.5642 13.2103 22.6012 13.3279C22.676 13.5655 22.6116 13.7851 22.4221 13.9273C21.4085 14.6881 21.0027 16.0149 21.3794 17.2124C21.4623 17.4758 21.3685 17.6855 21.2003 17.8118C21.1142 17.8764 21.0243 17.9045 20.9494 17.9068C20.8848 17.9088 20.7983 17.8938 20.6891 17.8118C19.6654 17.0435 18.27 17.0435 17.2464 17.8118C17.1371 17.8938 17.0506 17.9088 16.986 17.9068C16.9111 17.9045 16.8213 17.8764 16.7351 17.8118C16.5669 17.6855 16.4732 17.4758 16.556 17.2124C16.9327 16.0149 16.5269 14.6881 15.5133 13.9273C15.3238 13.7851 15.2595 13.5655 15.3342 13.3279C15.3712 13.2103 15.4359 13.1214 15.504 13.067C15.5637 13.0193 15.6439 12.9822 15.7689 12.9822C17.0523 12.9822 18.1545 12.1306 18.533 10.9272Z" fill="#2C324A"/>
<path fill-rule="evenodd" clip-rule="evenodd" d="M18.7044 2.64991e-05C15.9268 -0.000410624 14.2318 -0.000677274 12.8195 0.458187C9.96986 1.3841 7.73567 3.61829 6.80976 6.46797L6.79572 6.51167H6.32032C0.28805 6.51167 -2.30325 14.1662 2.48852 17.8305L2.50586 17.8438L6.52175 20.6932C6.66729 20.7965 6.81832 20.8915 6.97411 20.9779C6.97633 20.9837 6.97856 20.9896 6.9808 20.9954C6.99645 21.0363 7.01247 21.077 7.02887 21.1178C7.44478 22.1509 8.25661 23.3904 9.03739 24.1846C10.3098 25.4787 11.6266 26.0526 13.7293 26.969L13.869 27.0299C14.7747 27.4248 15.6905 27.7829 16.5408 28.0443C16.9436 28.168 17.3501 28.276 17.747 28.3545V32.5581H12.4563C11.782 32.5581 11.2353 33.1048 11.2353 33.7791C11.2353 34.4534 11.782 35 12.4563 35H25.4795C26.1538 35 26.7004 34.4534 26.7004 33.7791C26.7004 33.1048 26.1538 32.5581 25.4795 32.5581H20.1888V28.3545C20.5857 28.276 20.9922 28.168 21.3949 28.0443C22.2453 27.783 23.1611 27.4248 24.0668 27.0299L24.2065 26.969C26.3092 26.0526 27.626 25.4787 28.8984 24.1846C29.6792 23.3904 30.491 22.1509 30.9069 21.1178C30.9251 21.0725 30.9429 21.0271 30.9602 20.9817C31.1193 20.8912 31.2739 20.7928 31.4234 20.6867L35.4301 17.8438L35.4475 17.8305C40.2392 14.1662 37.6479 6.51167 31.6157 6.51167H31.14L31.126 6.46797C30.2001 3.61829 27.9659 1.3841 25.1162 0.458187C23.704 -0.000677274 22.009 -0.000410624 19.2313 2.64991e-05H18.7044ZM3.95557 15.8783C1.04085 13.6276 2.63001 8.95353 6.32032 8.95353H6.40545C6.35152 9.90604 6.35157 11.0484 6.35162 12.4797L6.35161 14.9214C6.35149 15.9389 6.35138 16.8164 6.38415 17.6015L3.95557 15.8783ZM33.9804 15.8783L31.5516 17.6016C31.5844 16.8169 31.5843 15.9398 31.5842 14.9229L31.5841 12.4796C31.5842 11.0485 31.5842 9.90595 31.5303 8.95353H31.6157C35.306 8.95353 36.8951 13.6276 33.9804 15.8783ZM13.5741 2.78053C14.5699 2.45697 15.8429 2.44191 18.9679 2.44191C22.0929 2.44191 23.3658 2.45697 24.3617 2.78053C26.4679 3.4649 28.1193 5.11626 28.8037 7.22254C28.8725 7.43445 28.9288 7.66642 28.9741 7.93543C29.138 8.90827 29.1423 10.2203 29.1423 12.6163V14.7332C29.1423 17.4145 29.1302 18.6679 28.7981 19.7622C28.7527 19.9116 28.701 20.0586 28.6417 20.2058C28.346 20.9403 27.7123 21.908 27.1572 22.4726C26.2464 23.3989 25.3642 23.8004 23.0909 24.7915C22.2343 25.165 21.4097 25.4852 20.6776 25.7101C19.9277 25.9406 19.3521 26.0465 18.9679 26.0465C18.5836 26.0465 18.0081 25.9406 17.2581 25.7101C16.5261 25.4852 15.7015 25.165 14.8449 24.7915C12.5716 23.8004 11.6894 23.3989 10.7786 22.4726C10.2235 21.908 9.58975 20.9403 9.29406 20.2058C9.23301 20.0542 9.17996 19.9029 9.13362 19.7487C8.80537 18.6569 8.79348 17.4031 8.79348 14.7332V12.6163C8.79348 10.2203 8.79774 8.90827 8.96163 7.93543C9.00695 7.66642 9.06325 7.43445 9.1321 7.22254C9.81647 5.11626 11.4678 3.4649 13.5741 2.78053Z" fill="#2C324A"/>
</svg>
