<svg width="13" height="26" viewBox="0 0 13 26" fill="none" xmlns="http://www.w3.org/2000/svg">
<path d="M12.1428 3.3327C12.7696 2.7115 12.7741 1.69982 12.1529 1.07305C11.5317 0.446283 10.52 0.441769 9.89322 1.06297L6.06966 4.85256C4.62955 6.27983 3.45253 7.44635 2.61782 8.48572C1.74982 9.56655 1.12148 10.6636 0.953635 11.9804C0.880038 12.5578 0.880038 13.1422 0.953635 13.7196C1.12148 15.0364 1.74982 16.1335 2.61782 17.2143C3.45253 18.2537 4.62953 19.4202 6.06963 20.8474L9.89322 24.637C10.52 25.2582 11.5317 25.2537 12.1529 24.627C12.7741 24.0002 12.7696 22.9885 12.1428 22.3673L8.38689 18.6448C6.86258 17.134 5.81696 16.0943 5.10944 15.2133C4.42217 14.3575 4.18639 13.8078 4.12364 13.3155C4.08424 13.0064 4.08424 12.6936 4.12364 12.3845C4.18639 11.8922 4.42217 11.3425 5.10944 10.4867C5.81696 9.60573 6.86258 8.56599 8.38689 7.05522L12.1428 3.3327Z" fill="#2C324A"/>
</svg>
