<svg width="35" height="35" viewBox="0 0 35 35" fill="none" xmlns="http://www.w3.org/2000/svg">
<path d="M11.0385 20.5757C11.0385 19.8323 11.6412 19.2296 12.3846 19.2296H23.1538C23.8973 19.2296 24.5 19.8323 24.5 20.5757C24.5 21.3192 23.8973 21.9219 23.1538 21.9219H12.3846C11.6412 21.9219 11.0385 21.3192 11.0385 20.5757Z" fill="#2C324A"/>
<path fill-rule="evenodd" clip-rule="evenodd" d="M12.1154 0.114108C12.8588 0.114108 13.2902 0.0217523 13.4615 0.0190364C14.6627 -1.546e-07 15.9974 0 17.4802 0H17.5198C19.0026 0 20.3373 -5.28991e-07 21.5385 0.019036C21.9484 0.019036 22.1412 0.114108 22.8846 0.114108C23.6281 0.114108 24.035 0.146779 24.2308 0.114118C26.9445 0.284248 29.0293 0.723956 30.7457 1.97104C31.6219 2.60761 32.3924 3.37811 33.029 4.25427C34.4682 6.2352 34.8321 8.7067 34.9473 12.0693C35 13.6079 35 15.398 35 17.4802V17.5198C35 19.602 35 21.3921 34.9473 22.9307C34.8321 26.2933 34.4682 28.7648 33.029 30.7457C32.3924 31.6219 31.6219 32.3924 30.7457 33.029C28.7648 34.4682 26.2933 34.8321 22.9307 34.9473C21.392 35 19.6017 35 17.5194 35H17.4187C14.1224 35 11.5385 35 9.48855 34.7779C7.39656 34.5513 5.70152 34.0804 4.25427 33.029C3.37811 32.3924 2.60761 31.6219 1.97104 30.7457C0.919556 29.2985 0.448729 27.6034 0.222076 25.5115C-2.63155e-05 23.4615 -1.46279e-05 20.8776 2.42713e-07 17.5812L4.56679e-07 17.4801C-7.82347e-08 15.398 -5.02914e-07 13.6079 0.0527127 12.0693C0.16792 8.7067 0.531814 6.2352 1.97104 4.25427C2.60761 3.37811 3.37811 2.60761 4.25427 1.97104C5.97074 0.723955 8.05553 0.284248 10.7692 0.114118C10.7692 0.114118 11.3719 0.114108 12.1154 0.114108ZM10.7692 2.81301C8.32452 2.98114 6.91344 3.36691 5.83677 4.14916C5.18917 4.61967 4.61967 5.18917 4.14917 5.83676C3.36692 6.91344 2.98114 8.32452 2.81301 10.7692H32.187C32.0189 8.32452 31.6331 6.91344 30.8508 5.83676C30.3803 5.18917 29.8108 4.61967 29.1632 4.14916C28.0866 3.36691 26.6755 2.98114 24.2308 2.81301C23.6434 2.77262 23.3778 2.71167 23.0201 2.71167C22.2369 2.71167 22.2643 2.72348 21.5385 2.71167C20.3546 2.6924 19.0213 2.69231 17.5 2.69231C15.9787 2.69231 14.6454 2.6924 13.4615 2.71167C13.1488 2.71167 12.5895 2.71167 12.1579 2.71167C11.4145 2.71167 11.0129 2.81301 10.7692 2.81301ZM32.2883 13.4615H2.71167C2.6924 14.6454 2.69231 15.9787 2.69231 17.5C2.69231 20.8951 2.69416 23.3333 2.89872 25.2215C3.10055 27.0844 3.4867 28.2514 4.14917 29.1632C4.61967 29.8108 5.18917 30.3803 5.83677 30.8508C6.74857 31.5133 7.91563 31.8994 9.77854 32.1013C11.6667 32.3058 14.1049 32.3077 17.5 32.3077C19.0227 32.3077 20.357 32.3076 21.5417 32.2883C21.5496 31.4363 21.5761 30.8092 21.6655 30.2445C22.365 25.8284 25.8284 22.365 30.2445 21.6655C30.8092 21.5761 31.4363 21.5496 32.2883 21.5417C32.3076 20.357 32.3077 19.0227 32.3077 17.5C32.3077 15.9787 32.3076 14.6454 32.2883 13.4615ZM32.1866 24.2358C31.4598 24.2442 31.0337 24.2664 30.6657 24.3247C27.4016 24.8417 24.8417 27.4016 24.3247 30.6657C24.2664 31.0337 24.2442 31.4598 24.2358 32.1866C26.6774 32.0183 28.0873 31.6325 29.1632 30.8508C29.8108 30.3803 30.3803 29.8108 30.8508 29.1632C31.6326 28.0873 32.0183 26.6774 32.1866 24.2358Z" fill="#2C324A"/>
</svg>
