<svg width="36" height="35" viewBox="0 0 36 35" fill="none" xmlns="http://www.w3.org/2000/svg">
<path d="M1 1.45833L1 14.5833C1 14.9701 1.15365 15.341 1.42714 15.6145C1.70063 15.888 2.07156 16.0417 2.45833 16.0417C2.84511 16.0417 3.21604 15.888 3.48953 15.6145C3.76302 15.341 3.91667 14.9701 3.91667 14.5833L3.91667 1.45833C3.91667 1.07156 3.76302 0.700627 3.48953 0.427136C3.21604 0.153646 2.84511 0 2.45833 0C2.07156 0 1.70063 0.153646 1.42714 0.427136C1.15365 0.700627 1 1.07156 1 1.45833Z" fill="#2C324A"/>
<path d="M2.42632 2.91667H28.6763C29.8366 2.91667 30.9494 3.3776 31.7699 4.19807C32.5904 5.01854 33.0513 6.13134 33.0513 7.29167V33.5417C33.0513 33.9284 33.205 34.2994 33.4785 34.5729C33.7519 34.8464 34.1229 35 34.5097 35C34.8964 35 35.2674 34.8464 35.5409 34.5729C35.8143 34.2994 35.968 33.9284 35.968 33.5417V7.29167C35.9657 5.35851 35.1967 3.50519 33.8297 2.13824C32.4628 0.771284 30.6095 0.00231467 28.6763 -9.53674e-07H2.42632C2.03955 -9.53674e-07 1.66861 0.153643 1.39512 0.427134C1.12163 0.700624 0.967986 1.07156 0.967986 1.45833C0.967986 1.84511 1.12163 2.21604 1.39512 2.48953C1.66861 2.76302 2.03955 2.91667 2.42632 2.91667Z" fill="#2C324A"/>
<path d="M19.125 30.2083C19.125 29.8215 18.9714 29.4506 18.6979 29.1771C18.4244 28.9036 18.0534 28.75 17.6667 28.75H7.45833C7.07156 28.75 6.70063 28.9036 6.42714 29.1771C6.15365 29.4506 6 29.8215 6 30.2083C6 30.5951 6.15365 30.966 6.42714 31.2395C6.70063 31.513 7.07156 31.6667 7.45833 31.6667H17.6667C18.0534 31.6667 18.4244 31.513 18.6979 31.2395C18.9714 30.966 19.125 30.5951 19.125 30.2083Z" fill="#2C324A"/>
<path d="M7.45833 24.75H20.5833C20.9701 24.75 21.341 24.5964 21.6145 24.3229C21.888 24.0494 22.0417 23.6784 22.0417 23.2917C22.0417 22.9049 21.888 22.534 21.6145 22.2605C21.341 21.987 20.9701 21.8333 20.5833 21.8333H7.45833C7.07156 21.8333 6.70063 21.987 6.42714 22.2605C6.15365 22.534 6 22.9049 6 23.2917C6 23.6784 6.15365 24.0494 6.42714 24.3229C6.70063 24.5964 7.07156 24.75 7.45833 24.75Z" fill="#2C324A"/>
<path d="M7.45833 17.8333H16.2083C16.5951 17.8333 16.966 17.6797 17.2395 17.4062C17.513 17.1327 17.6667 16.7618 17.6667 16.375C17.6667 15.9882 17.513 15.6173 17.2395 15.3438C16.966 15.0703 16.5951 14.9167 16.2083 14.9167L7.45833 14.9167C7.07156 14.9167 6.70063 15.0703 6.42714 15.3438C6.15365 15.6173 6 15.9882 6 16.375C6 16.7618 6.15365 17.1327 6.42714 17.4062C6.70063 17.6797 7.07156 17.8333 7.45833 17.8333Z" fill="#2C324A"/>
<path d="M7.45833 10.9167L22.0417 10.9167C22.4284 10.9167 22.7994 10.763 23.0729 10.4895C23.3464 10.216 23.5 9.8451 23.5 9.45832C23.5 9.07155 23.3464 8.70062 23.0729 8.42712C22.7994 8.15363 22.4284 7.99999 22.0417 7.99999L7.45833 7.99999C7.07156 7.99999 6.70063 8.15363 6.42714 8.42712C6.15365 8.70062 6 9.07155 6 9.45832C6 9.8451 6.15365 10.216 6.42714 10.4895C6.70063 10.763 7.07156 10.9167 7.45833 10.9167Z" fill="#2C324A"/>
</svg>
