<svg width="58" height="70" viewBox="0 0 58 70" fill="none" xmlns="http://www.w3.org/2000/svg">
<path d="M47.5312 43.625C46.9401 47.5663 45.1003 51.2141 42.2822 54.0322C39.4641 56.8503 35.8163 58.6901 31.875 59.2813H31.5C30.8728 59.2766 30.2702 59.0363 29.8119 58.6081C29.3535 58.1798 29.0729 57.595 29.0257 56.9695C28.9785 56.344 29.1681 55.7236 29.557 55.2315C29.9459 54.7393 30.5056 54.4113 31.125 54.3125C33.998 53.8454 36.6514 52.4866 38.7097 50.4284C40.7679 48.3702 42.1267 45.7168 42.5938 42.8438C42.6283 42.507 42.7309 42.1808 42.8953 41.8849C43.0597 41.5891 43.2825 41.3296 43.5501 41.1224C43.8178 40.9152 44.1247 40.7644 44.4523 40.6794C44.78 40.5943 45.1215 40.5766 45.4561 40.6275C45.7908 40.6783 46.1116 40.7966 46.3992 40.9751C46.6868 41.1536 46.9351 41.3887 47.1292 41.666C47.3232 41.9434 47.4589 42.2573 47.528 42.5886C47.5971 42.92 47.5982 43.262 47.5312 43.5938V43.625ZM57.75 40.75C57.75 48.375 54.721 55.6877 49.3293 61.0793C43.9376 66.471 36.625 69.5 29 69.5C21.375 69.5 14.0624 66.471 8.67068 61.0793C3.27901 55.6877 0.25 48.375 0.25 40.75C0.25 33.5313 3.34375 25.2188 9.4375 16.0313C9.62027 15.7581 9.85511 15.5236 10.1286 15.3413C10.4021 15.159 10.7088 15.0324 11.0312 14.9688C11.6812 14.8438 12.3543 14.9784 12.9062 15.3438L22.9688 22.0625L32.625 1.81251C32.7977 1.4509 33.0557 1.13674 33.377 0.897184C33.6982 0.657624 34.0729 0.49986 34.4688 0.437514C34.8618 0.369278 35.2654 0.39608 35.646 0.515681C36.0265 0.635283 36.3729 0.844211 36.6562 1.12501C41.25 5.71876 46.5312 11.3125 50.5938 17.8125C55.4062 25.4688 57.75 32.9688 57.75 40.75ZM52.75 40.75C52.75 27.4375 44.8125 16.75 35.5938 7.18751L26.25 26.8125C26.1002 27.1404 25.8796 27.431 25.604 27.6634C25.3284 27.8957 25.0047 28.0641 24.6562 28.1563C24.3144 28.2472 23.9575 28.2664 23.6079 28.2126C23.2583 28.1588 22.9237 28.0332 22.625 27.8438L12.25 20.9063C7.59375 28.4063 5.25 35.0625 5.25 40.75C5.25 47.0489 7.75223 53.0898 12.2062 57.5438C16.6602 61.9978 22.7011 64.5 29 64.5C35.2989 64.5 41.3398 61.9978 45.7938 57.5438C50.2478 53.0898 52.75 47.0489 52.75 40.75Z" fill="#FF9A62"/>
</svg>
