<svg width="36" height="35" viewBox="0 0 36 35" fill="none" xmlns="http://www.w3.org/2000/svg">
<path d="M34.5104 32.0833H8.26042C7.10009 32.0833 5.9873 31.6224 5.16682 30.8019C4.34635 29.9815 3.88542 28.8687 3.88542 27.7083V1.45833C3.88542 1.07156 3.73177 0.700627 3.45828 0.427136C3.18479 0.153645 2.81386 0 2.42708 0C2.04031 0 1.66938 0.153645 1.39589 0.427136C1.1224 0.700627 0.96875 1.07156 0.96875 1.45833L0.96875 27.7083C0.971066 29.6415 1.74004 31.4948 3.10699 32.8618C4.47394 34.2287 6.32726 34.9977 8.26042 35H34.5104C34.8972 35 35.2681 34.8464 35.5416 34.5729C35.8151 34.2994 35.9688 33.9284 35.9688 33.5417C35.9688 33.1549 35.8151 32.784 35.5416 32.5105C35.2681 32.237 34.8972 32.0833 34.5104 32.0833Z" fill="#2C324A"/>
<path d="M9.72005 29.1666C10.1068 29.1666 10.4778 29.013 10.7512 28.7395C11.0247 28.466 11.1784 28.095 11.1784 27.7083V17.4999C11.1784 17.1132 11.0247 16.7422 10.7512 16.4687C10.4778 16.1952 10.1068 16.0416 9.72005 16.0416C9.33328 16.0416 8.96235 16.1952 8.68885 16.4687C8.41536 16.7422 8.26172 17.1132 8.26172 17.4999V27.7083C8.26172 28.095 8.41536 28.466 8.68885 28.7395C8.96235 29.013 9.33328 29.1666 9.72005 29.1666Z" fill="#2C324A"/>
<path d="M15.5508 14.5833V27.7083C15.5508 28.0951 15.7044 28.466 15.9779 28.7395C16.2514 29.013 16.6223 29.1667 17.0091 29.1667C17.3959 29.1667 17.7668 29.013 18.0403 28.7395C18.3138 28.466 18.4674 28.0951 18.4674 27.7083V14.5833C18.4674 14.1966 18.3138 13.8256 18.0403 13.5521C17.7668 13.2786 17.3959 13.125 17.0091 13.125C16.6223 13.125 16.2514 13.2786 15.9779 13.5521C15.7044 13.8256 15.5508 14.1966 15.5508 14.5833Z" fill="#2C324A"/>
<path d="M22.8438 18.9583V27.7083C22.8438 28.0951 22.9974 28.466 23.2709 28.7395C23.5444 29.013 23.9153 29.1667 24.3021 29.1667C24.6889 29.1667 25.0598 29.013 25.3333 28.7395C25.6068 28.466 25.7604 28.0951 25.7604 27.7083V18.9583C25.7604 18.5716 25.6068 18.2006 25.3333 17.9271C25.0598 17.6536 24.6889 17.5 24.3021 17.5C23.9153 17.5 23.5444 17.6536 23.2709 17.9271C22.9974 18.2006 22.8438 18.5716 22.8438 18.9583Z" fill="#2C324A"/>
<path d="M30.1367 13.1249V27.7083C30.1367 28.095 30.2904 28.466 30.5639 28.7395C30.8373 29.013 31.2083 29.1666 31.5951 29.1666C31.9818 29.1666 32.3528 29.013 32.6263 28.7395C32.8997 28.466 33.0534 28.095 33.0534 27.7083V13.1249C33.0534 12.7382 32.8997 12.3672 32.6263 12.0937C32.3528 11.8202 31.9818 11.6666 31.5951 11.6666C31.2083 11.6666 30.8373 11.8202 30.5639 12.0937C30.2904 12.3672 30.1367 12.7382 30.1367 13.1249Z" fill="#2C324A"/>
<path d="M9.71974 13.125C10.1065 13.1249 10.4774 12.9712 10.7508 12.6977L15.9804 7.46815C16.2583 7.20335 16.6275 7.05565 17.0114 7.05565C17.3953 7.05565 17.7645 7.20335 18.0424 7.46815L21.21 10.6356C22.0304 11.4558 23.143 11.9166 24.3031 11.9166C25.4632 11.9166 26.5758 11.4558 27.3962 10.6356L35.5424 2.4894C35.8081 2.21435 35.9551 1.84598 35.9518 1.46361C35.9484 1.08124 35.7951 0.715467 35.5247 0.44508C35.2543 0.174693 34.8885 0.0213222 34.5062 0.0179995C34.1238 0.0146768 33.7554 0.161669 33.4804 0.427316L25.3341 8.57211C25.0606 8.8455 24.6898 8.99909 24.3031 8.99909C23.9164 8.99909 23.5455 8.8455 23.272 8.57211L20.1045 5.40607C19.2841 4.58588 18.1715 4.12512 17.0114 4.12512C15.8513 4.12512 14.7387 4.58588 13.9183 5.40607L8.6887 10.6356C8.48481 10.8396 8.34597 11.0994 8.28972 11.3823C8.23348 11.6651 8.26236 11.9583 8.37271 12.2247C8.48306 12.4912 8.66993 12.7189 8.9097 12.8792C9.14946 13.0394 9.43136 13.125 9.71974 13.125Z" fill="#2C324A"/>
</svg>
