<svg width="46" height="46" viewBox="0 0 46 46" fill="none" xmlns="http://www.w3.org/2000/svg">
<path fill-rule="evenodd" clip-rule="evenodd" d="M26.7112 15.9581C25.2591 15.0644 24.0734 14.3346 23.0958 13.854C22.1134 13.3711 21.0905 13.0069 20.0139 13.1275C18.4579 13.3018 17.0764 14.1683 16.1931 15.4642C15.5937 16.3436 15.3839 17.4111 15.2862 18.5462C15.1888 19.678 15.1888 21.1285 15.1888 22.9252V23.0749C15.1888 24.8715 15.1888 26.322 15.2862 27.4538C15.3839 28.589 15.5937 29.6564 16.1931 30.5359C17.0764 31.8318 18.4579 32.6982 20.0139 32.8726C21.0905 32.9932 22.1134 32.6289 23.0958 32.146C24.0734 31.6654 25.2591 30.9357 26.7112 30.042L26.8487 29.9574C28.3023 29.0628 29.4876 28.3334 30.3656 27.6721C31.257 27.0008 32.0298 26.2594 32.4446 25.2661C33.048 23.8216 33.048 22.1784 32.4446 20.7339C32.0298 19.7407 31.257 18.9993 30.3656 18.3279C29.4876 17.6667 28.3023 16.9373 26.8488 16.0427L26.7112 15.9581ZM20.3618 16.2331C20.5254 16.2147 20.8782 16.2461 21.7171 16.6585C22.5452 17.0656 23.6042 17.7153 25.1429 18.6623C26.6808 19.6088 27.7392 20.2621 28.4856 20.8242C29.2323 21.3865 29.4687 21.7173 29.5611 21.9383C29.8425 22.6121 29.8425 23.3879 29.5611 24.0617C29.4687 24.2828 29.2323 24.6135 28.4856 25.1758C27.7392 25.738 26.6808 26.3913 25.1429 27.3378C23.6042 28.2847 22.5452 28.9345 21.7171 29.3416C20.8782 29.754 20.5254 29.7853 20.3618 29.767C19.7545 29.6989 19.1707 29.3559 18.7754 28.7759C18.6419 28.58 18.4852 28.1797 18.3997 27.1858C18.3152 26.2043 18.3138 24.8891 18.3138 23C18.3138 21.1109 18.3152 19.7958 18.3997 18.8142C18.4852 17.8203 18.6419 17.42 18.7754 17.2242C19.1707 16.6441 19.7545 16.3011 20.3618 16.2331Z" fill="white"/>
<path fill-rule="evenodd" clip-rule="evenodd" d="M23.0013 0.604187C10.6324 0.604187 0.605469 10.6311 0.605469 23C0.605469 35.3689 10.6324 45.3959 23.0013 45.3959C35.3702 45.3959 45.3971 35.3689 45.3971 23C45.3971 10.6311 35.3702 0.604187 23.0013 0.604187ZM3.73047 23C3.73047 12.357 12.3583 3.72919 23.0013 3.72919C33.6443 3.72919 42.2721 12.357 42.2721 23C42.2721 33.643 33.6443 42.2709 23.0013 42.2709C12.3583 42.2709 3.73047 33.643 3.73047 23Z" fill="white"/>
</svg>
