<svg width="25" height="25" viewBox="0 0 25 25" fill="none" xmlns="http://www.w3.org/2000/svg">
<path fill-rule="evenodd" clip-rule="evenodd" d="M18.2225 0.158626C16.7582 -1.86265e-05 14.9125 -1.02994e-05 12.558 1.69663e-07H12.442C10.0875 -1.02994e-05 8.24181 -1.86265e-05 6.77753 0.158626C5.28326 0.320521 4.07251 0.656826 3.03876 1.40789C2.41294 1.86258 1.86258 2.41294 1.40789 3.03876C0.656826 4.07251 0.320521 5.28326 0.158626 6.77753C-1.86265e-05 8.24181 -1.02994e-05 10.0875 1.69663e-07 12.442V12.558C-1.02994e-05 14.9125 -1.86265e-05 16.7582 0.158626 18.2225C0.320521 19.7167 0.656826 20.9275 1.40789 21.9612C1.86258 22.5871 2.41294 23.1374 3.03876 23.5921C4.07251 24.3432 5.28326 24.6795 6.77753 24.8414C8.24178 25 10.0874 25 12.4419 25H12.558C14.9125 25 16.7582 25 18.2225 24.8414C19.7167 24.6795 20.9275 24.3432 21.9612 23.5921C22.5871 23.1374 23.1374 22.5871 23.5921 21.9612C24.3432 20.9275 24.6795 19.7167 24.8414 18.2225C25 16.7582 25 14.9126 25 12.5581V12.442C25 10.0875 25 8.24179 24.8414 6.77753C24.6795 5.28326 24.3432 4.07251 23.5921 3.03876C23.1374 2.41294 22.5871 1.86258 21.9612 1.40789C20.9275 0.656826 19.7167 0.320521 18.2225 0.158626ZM4.16912 2.96369C4.82041 2.4905 5.65402 2.21468 6.98467 2.07051C8.33332 1.9244 10.0749 1.92308 12.5 1.92308C14.9251 1.92308 16.6667 1.9244 18.0153 2.07051C19.346 2.21468 20.1796 2.4905 20.8309 2.96369C21.2934 3.29977 21.7002 3.70655 22.0363 4.16912C22.5095 4.82041 22.7853 5.65402 22.9295 6.98467C23.0756 8.33332 23.0769 10.0749 23.0769 12.5C23.0769 14.9251 23.0756 16.6667 22.9295 18.0153C22.7853 19.346 22.5095 20.1796 22.0363 20.8309C21.7002 21.2934 21.2934 21.7002 20.8309 22.0363C20.1796 22.5095 19.346 22.7853 18.0153 22.9295C16.6667 23.0756 14.9251 23.0769 12.5 23.0769C10.0749 23.0769 8.33332 23.0756 6.98467 22.9295C5.65402 22.7853 4.82041 22.5095 4.16912 22.0363C3.70655 21.7002 3.29977 21.2934 2.96369 20.8309C2.4905 20.1796 2.21468 19.346 2.07051 18.0153C1.9244 16.6667 1.92308 14.9251 1.92308 12.5C1.92308 10.0749 1.9244 8.33332 2.07051 6.98467C2.21468 5.65402 2.4905 4.82041 2.96369 4.16912C3.29976 3.70655 3.70655 3.29976 4.16912 2.96369Z" fill="#2C324A"/>
</svg>
